<svg xmlns="http://www.w3.org/2000/svg" xmlns:lucid="lucid" width="880" height="914.58"><g transform="translate(-420 -245.59152579362222)" lucid:page-tab-id="0_0"><path d="M1280 740.17c0 220.9-179.1 400-400 400s-400-179.1-400-400 179.1-400 400-400 400 179.1 400 400z" stroke="#c92d39" stroke-width="5" fill="url(#a)"/><g stroke="#000" stroke-opacity="0" stroke-width=".41" fill="#005888"><path d="M1160.78 369.25c-2.93-5.1-9.45-6.87-14.56-3.94-5.1 2.94-6.86 9.46-3.93 14.57 2.92 5.1 9.44 6.86 14.54 3.93s6.87-9.45 3.94-14.55zm-16.44 9.44c-2.27-3.97-.9-9.07 3.06-11.34 3.96-2.27 9.05-.9 11.33 3.07 2.27 3.95.9 9.05-3.07 11.32-3.95 2.27-9.05.9-11.32-3.06z"/><path d="M1151.6 378.56c-1.35-.02-2.6-.75-3.28-1.94-1.05-1.83-.42-4.16 1.4-5.2 1.84-1.06 4.2-.44 5.24 1.4.68 1.17.66 2.64 0 3.8l-.1.15 1.3 2.24.26-.34c.8-.95 1.3-2.15 1.4-3.4.1-1.27-.17-2.52-.8-3.63-1.7-2.96-5.5-4-8.48-2.3-2.98 1.72-4 5.52-2.3 8.48.65 1.12 1.58 2 2.73 2.53 1.13.56 2.4.73 3.64.52l.47-.07-1.3-2.24-.18.02z"/></g><path d="M445.54 304.92c-3.17 3.28-5.54 5.74-5.54 6.56 0 .82 3.96 4.1 8.7 8.2l9.5 6.56 6.33-4.92c6.34-6.56 6.34-6.56-6.33-15.58l-7.12-5.74-5.54 4.92zM471.66 325.42c-.8 1.64-1.6 2.46-.8 2.46 0 .82 18.2 14.76 39.58 31.98 22.16 17.22 46.7 36.9 55.4 44.28 9.5 7.38 57.77 45.1 108.42 85.28l91 72.16 7.14-4.92c3.95-2.46 6.33-4.92 6.33-4.92s-45.9-35.26-102.1-77.08c-56.2-41.82-109.2-81.18-118.7-87.74-8.7-6.56-30.87-23.78-49.87-37.72-18.2-13.94-34.03-25.42-34.82-25.42 0 0-1.58.82-1.58 1.64zM1213.22 345.92l-9.5 5.74 3.96 4.92 4.75 5.74 8.7-5.74c5.54-3.28 9.5-5.74 10.3-6.56.78 0-6.34-9.84-7.92-9.84 0 0-4.74 2.46-10.28 5.74zM1086.6 427.1c-63.32 36.9-136.92 81.18-165.42 98.4l-50.65 29.52 6.33 4.92c3.96 3.28 7.13 4.92 8.7 4.92 2.38-.82 87.07-54.94 252.47-159.9 72.02-45.92 66.48-41.82 64.1-44.28-.78-.82-41.15 22.14-115.54 66.42zM798.5 549.28c-19.77 5.74-38.77 22.14-45.1 39.36-4.75 11.48-5.54 13.94-1.58 13.94 9.5-.82 136.92-13.12 137.7-13.94 2.38-1.64-8.7-17.22-18.2-24.6-14.24-12.3-25.32-15.58-46.7-16.4-11.07-.82-21.36 0-26.1 1.64zM1062.85 586.18c-9.5.82-50.65 4.1-89.43 6.56-169.37 13.94-238.22 18.86-320.53 25.42-47.5 3.28-91.8 7.38-97.35 9.02-15.04 4.1-25.33 13.94-29.3 27.06-1.57 9.84-1.57 14.76 2.4 42.64 8.7 63.96 16.6 118.08 20.57 145.96 2.37 15.58 5.54 37.72 7.12 50.02 5.54 38.54 10.3 50.84 25.32 59.04 11.88 5.74 22.16 7.38 136.13 15.58 54.6 4.1 147.98 11.48 208.13 15.58 102.9 8.2 109.22 8.2 120.3 5.74 18.2-4.1 29.28-13.94 34.82-30.34 1.58-4.92 7.92-34.44 13.46-66.42 11.88-68.06 19.8-113.16 35.62-200.9 5.54-35.26 11.08-68.06 11.08-72.16 0-15.58-7.12-25.42-21.37-31.98-8.7-3.28-25.32-4.1-56.98-.82zm-76.77 42.64c9.5 3.28 15.04 12.3 15.04 22.14 0 4.92-1.6 18.86-3.96 32.8-2.37 13.12-9.5 60.68-15.83 104.96-21.37 138.58-22.16 144.32-31.65 154.16-2.38 3.28-8.7 7.38-13.46 9.02-11.08 3.28-14.24 3.28-155.12-9.02-49.07-4.92-104.47-9.84-122.67-11.48-37.2-3.28-45.9-4.92-52.23-9.84-10.3-9.02-12.66-19.68-20.58-87.74-2.37-20.5-7.12-59.86-10.3-86.92-7.1-59.86-7.1-71.34-2.36-79.54 7.9-11.48 1.58-11.48 178.07-24.6 41.94-3.28 104.47-8.2 139.3-10.66 75.96-6.56 87.04-6.56 95.75-3.28zm104.47 41.82c18.2 11.48 19 35.26.8 49.2-15.05 12.3-32.46 12.3-45.9.82-7.14-5.74-7.93-8.2-8.72-16.4-1.58-12.3 1.58-20.5 10.3-27.88 12.65-11.48 31.65-13.94 43.52-5.74zm-24.54 123c2.4 2.46 3.97 5.74 3.97 8.2 0 5.74-5.54 13.12-11.08 15.58-7.13 3.28-11.88 3.28-18.2-1.64-3.97-2.46-4.76-4.92-4.76-10.66 0-14.76 20.58-22.96 30.07-11.48z" stroke="#000" stroke-opacity="0" stroke-width=".11" fill="#005888"/><path d="M978.96 650.96c-2.38 5.74-2.38 10.66 0 13.94 1.58 2.46 2.37 2.46 5.54 0 3.95-3.28 5.54-12.3 3.16-15.58-3.95-4.1-6.33-3.28-8.7 1.64zM977.37 673.92c-.8 1.64-12.66 50.84-25.32 109.88-13.45 62.32-25.33 109.88-27.7 113.98-3.96 8.2-11.08 13.12-21.37 16.4-8.7 2.46-125.04.82-199.44-2.46-31.65-1.64-45.1-1.64-51.44 0-18.2 4.92-3.96 7.38 77.56 13.94 30.07 2.46 78.35 6.56 106.84 9.84 87.06 7.38 95.76 7.38 105.26-7.38 4.75-8.2 8.7-27.88 19-95.94 2.37-15.58 8.7-54.12 13.45-86.92 4.76-31.98 8.7-61.5 8.7-65.6 0-8.2-2.36-10.66-5.53-5.74zM629.15 969.94c-.8.82-2.37 14.76-3.96 30.34-2.38 15.58-3.96 34.44-4.76 40.18-1.58 11.48-.8 11.48 3.96 13.12 3.17 0 6.33.82 7.92 0 2.37-.82 29.28-82 27.7-83.64-.8 0-7.92-.82-15.83-1.64-10.3 0-15.05 0-15.05 1.64zM977.37 997.82c0 2.46 5.54 29.52 12.67 61.5l12.66 58.22 8.7 1.64c4.75.82 9.5.82 9.5.82s0-27.88-.8-60.68l-.78-60.68-11.87-.82c-6.33-.82-15.04-1.64-20.58-1.64-8.7-1.64-9.5-.82-9.5 1.64z" stroke="#000" stroke-opacity="0" stroke-width=".11" fill="#005888"/><path d="M847.68 681.1c-2.24 1.35-5.76 5.35-5.76 6.24 0 .22-.96.66-1.92.9-2.24.43-2.88 1.76-1.28 2.2.96.45 1.28 2.23 1.28 9.57 0 4.9.32 10.23.64 11.8.64 2.88.64 3.1-1.6 5.55-2.24 2.66-7.68 5.55-9.92 5.55-1.92 0-10.88 9.34-12.8 13.8-2.88 6.43-4.16 14-3.2 20.44 1.28 9.1 5.12 15.56 9.28 15.56 2.24 0 2.56.67.96 3.1-1.6 3.13-1.6 6.24 0 10.02 2.24 4.67 1.92 7.33 0 11.1-.96 1.8-1.92 4-1.92 4.68 0 .9-.64 2-1.28 2.9-.96 1.1-1.6 2.88-1.92 7.77l-.64 6.45h-3.52c-3.84.22-4.16 0-2.56-2 .64-.67.96-2 .96-2.9 0-2.22-5.76-13.33-7.36-14.66-.96-.67-1.28-1.34-.96-2 .32-.67-.32-2-1.6-3.34-1.6-2-1.6-2.22-.64-2.9 8-4.66 9.28-12.44 4.16-24.9-3.2-8.66-10.56-22.44-12.8-24.9-1.92-1.76-10.24-5.77-16.32-7.54-.96-.23-1.28-1.12-1.28-2.23 0-1.1-.64-2.67-1.6-3.55l-1.28-1.56 1.92-4c1.92-4 1.92-4.23.64-5.12-1.28-1.1-.96-3.1.64-4.44.64-.45.96-1.33.96-2 0-.67.64-1.56.96-2.22 1.28-.9.96-2.23-.96-4.45-.64-.66-1.28-2-1.6-2.88-.32-.67-.64-1.56-.96-1.56-.32 0-.64-.66-.96-1.78-.32-1.77-3.52-3.77-5.44-3.55-.32.22-1.92-.22-2.88-.9-1.28-.66-3.84-1.1-6.08-1.1-3.2 0-3.84.22-4.8 1.55-.64.9-1.92 2-2.88 2.45-.96.44-1.6 1.55-1.92 2.44-.32.67-.96 1.78-1.92 2.45-2.24 1.78-2.56 7.56-.32 9.1 1.28.9 1.28 1.35.96 3.8-.64 3.33.64 9.1 2.24 11.1.96 1.12.64 1.12-1.6 1.12-3.2 0-6.08 2.9-7.36 7.1-.64 2.24-.96 3.13-1.92 3.13-2.24.22-6.72 2.66-8.64 5.1-.96 1.34-3.2 6.46-4.8 11.12-1.6 4.88-3.52 10.22-4.48 12.22-.64 1.78-1.28 4.45-1.28 6 0 1.34-.64 3.78-1.28 5.34-1.92 3.55-1.92 4.44.96 10.22 2.56 5.12 4.16 6.67 7.36 6.67 1.6 0 1.92.45 1.92 2.23 0 1.33-.32 2.66-.64 3.1-1.92 2-5.12 8.46-4.48 9.8 0 .66-.32 1.77-.64 2.44-1.6 1.77-1.28 2.66.64 4.9.96 1.1 1.6 2.43 1.6 2.65 0 .67-10.24.67-11.52 0-.32-.22-.96-2.44-1.28-4.66-1.28-5.33-2.88-8.9-8-15.78-1.92-2.9-3.84-5.33-3.84-5.56 0 0 1.92-.66 4.16-1.33s4.48-1.78 5.12-2.45c.96-1.1 3.2-8.44 3.2-10.9 0-.88-.96-2-2.56-2.88l-2.56-1.55.64-4.23c.32-3.78 0-4.44-1.28-6.67-.96-1.33-2.56-4.9-3.2-7.78-.64-2.9-2.56-7.33-3.84-10.22-2.24-3.78-2.56-4.9-1.92-5.34.64 0 1.28-1.1 1.28-2 .64-1.55.32-2.2-1.28-3.55-.96-1.1-1.6-2.22-1.6-3.55 0-2.23-.96-3.12-6.72-6.23-6.08-3.1-7.04-4.9-7.68-13.34-.32-5.78-.96-7.55-2.88-11.1-4.16-8.24-8.96-10.68-18.24-9.8-6.08.67-7.36 1.12-10.56 4.9-3.2 3.55-5.12 7.56-5.12 10.67 0 4.9-1.28 7.78-5.76 12.45-3.2 3.1-4.8 5.78-5.76 8.44-1.92 4.9-1.92 6-.64 5.55.96-.44 1.28-.22.64.9-.96 1.33-.64 1.55.32 1.1.96-.22.64.23-.64 1.56-2.56 2.68-3.84 6-5.44 13.8-1.92 10.9-2.24 16.44-.96 20 .64 1.56 2.24 5.34 3.2 8.22l1.6 5.12-3.52 9.56c-2.24 5.1-4.8 12-6.08 14.9-1.28 2.88-2.24 6-2.24 6.66 0 .67.64 1.78 1.92 2.45 5.76 3.34 5.76 3.34-7.36 3.34-11.84 0-12.48 0-13.76 1.33-2.24 2-2.24 5.34-.32 7.34.96.9 2.56 1.57 5.12 1.8l3.84.2-.96 13.13c-.32 7.1-1.28 22-2.24 33.12-.64 12.45-.96 20.68-.64 21.34.96 1.77 3.2 1.55 4.16-.45 1.6-4.45 4.8-27.8 7.04-51.58.64-6.22 1.28-12.22 1.6-13.56l.32-2.2h23.04l.32 2.66c.96 5.33 5.12 20.45 7.04 24.9 1.28 2.88 2.24 6.22 2.24 7.78 0 1.55.32 3.77.96 4.66.96 1.12.96 2.45.64 4.45 0 1.78 0 2.67.32 2.67s.64 1.55.64 3.33c0 2 .32 3.56.64 3.78.32.22.96 1.34 1.28 2.45.32 2 0 2.44-1.92 4.44-1.92 1.56-2.56 2.9-2.88 5.34-.32 1.78-.32 3.33 0 3.78.64 1.33 10.56 3.1 14.08 2.67 3.52-.44 6.4-2 7.04-3.77.32-.45-.32-2.23-.96-4-1.6-2.67-1.6-3.12-.64-7.34.96-3.8.96-4.46 0-5.35-.96-1.1-.96-1.33 0-3.78 1.6-3.55 1.6-5.1.32-4.66-.64.23-.32-.44.64-2.22 1.92-2.44 1.6-3.55-.64-3.55-1.28 0-1.28-.45-.64-10.45.32-6.9 0-12.23-.64-15.8-.32-3.1-.96-6.88-.96-8.66l-.32-3.33h19.2v1.77c0 .9-.64 4.9-1.6 8.67-.96 5.1-1.28 9.78-1.28 16.45-.32 9.1-.32 9.55-1.92 10-1.6.66-1.92 1.77-.32 4 .96 1.33.96 1.77.32 2.22-.96.44-.96.9.32 6 .32.9 0 1.78-.64 2.22-.64.9-.64 1.56-.32 5.34.64 4.44.64 4.67-.96 7.33-2.24 3.13-2.24 3.13-.32 4.9 2.88 2.67 7.04 3.56 13.44 2.45 2.88-.45 5.76-1.1 6.4-1.33.32-.23.64-1.78.32-4-.32-2.9-.96-3.8-2.56-5.34-1.6-1.34-1.92-2-1.6-3.78.32-1.1.96-2.67 1.6-3.34.32-.88.64-2.22.32-3.1 0-.9.32-2.23.64-3.12.64-.9.96-2.22.64-3.33-.32-1.33 0-2.22.96-3.77.96-1.12 1.6-2.9 1.6-4.67 0-2 .64-4.23 1.92-6.45 2.24-4 7.68-19.33 8.96-25.1l.96-4 9.28.2 9.28.23-.32 3.12c0 2.44.32 4 1.92 7.33 1.6 3.34 2.24 4.9 2.24 8.45 0 6.45 1.28 12.23 6.08 24.9 4.16 10.9 4.48 11.78 3.52 13.56-.64 1.1-.96 2.88-.64 4.88.32 2.44 0 3.56-.96 5.1-2.56 3.35-1.6 4 5.76 4h6.4l1.6-2.65c2.24-3.56 2.56-7.34.96-11.12-1.6-3.32-1.6-10.66-.32-20.44.32-3.1.64-8.23.64-11.12 0-2.9.64-7.1 1.28-9.33.96-3.77.96-4.66.32-7.33-1.28-4.45-1.28-5.78 1.28-8 1.6-1.34 2.56-1.78 5.12-1.78h2.88l2.56 5.1c1.6 3.34 2.24 6 2.24 8 0 1.56.96 7.12 1.92 12.23.96 5.1 1.92 12.45 1.92 16.45.32 5.78.96 7.78 2.24 10.9 3.2 5.78 4.16 10.44 3.52 13.1-.64 2.23-.32 4.68.96 5.35 1.28.9 9.6.66 11.52-.23 1.28-.88 1.6-1.33 1.6-4.9 0-2.43.64-6.66 1.6-10 1.92-8.66 3.52-45.78 1.92-48.45-.32-.45-.32-2.23.32-4l.96-3.56h11.84l.32 1.77c.96 4.9 1.28 11.1.32 11.56-.32.22-.32 1.1.32 2.22.64 1.1 2.24 6.22 4.16 11.56 1.6 5.12 3.52 11.13 4.48 13.13 1.28 3.78 1.6 5.1.32 10.44-.32 1.78 0 2.45 2.88 5.12 3.2 3.1 3.52 3.54 3.84 7.77.32 2.67 0 4.67-.32 5.56-1.28 2 .96 3.33 5.76 3.33 6.08 0 10.24-1.78 11.52-4.9 1.6-2.66 1.6-12.44.64-13.33-.64-.22-.64-1.55-.64-3.1.32-2 0-3.35-1.6-6.46-.96-2-1.92-4.22-1.92-4.9 0-.66-1.28-6.2-3.2-12.44-1.6-6.22-2.88-12.22-2.88-13.34 0-1.34-.64-3.34-1.28-4.67-.96-2.45-.96-2.45 1.28-5.78l2.24-3.56h23.04l2.56 3.55c3.2 3.78 3.2 4.22 1.6 7.33-.32 1.34-.96 3.1-.64 4 .32 1.1-.64 6.67-1.92 12.45-1.28 5.78-2.56 12-2.56 13.56-.32 1.77-1.28 4-1.92 5.33-1.28 2-1.28 3.56-1.6 11.34 0 8.44 0 9.56 1.28 11.33 2.24 2.9 4.8 3.78 11.2 3.78 6.4 0 7.68-.66 6.4-3.55-.64-1.12-.96-3.56-.96-6 .32-3.8.64-4.23 3.2-6.68 3.2-3.1 3.52-4.22 2.24-8.9-.64-2.43-.64-3.54.64-7.32.96-2.45 2.24-7.34 3.2-11.12.96-3.77 2.56-9.1 3.2-11.55.96-2.67 1.28-4.9.96-5.1-.32-.23-.64-3.12-.32-6.46v-6h4.16c4.8 0 4.16-1.57 5.76 15.77 2.24 23.8 5.44 47.13 7.04 51.58.96 2 3.2 2.22 4.16.44.32-.67 0-8.9-.64-21.35-.96-11.1-1.92-26-2.24-33.12l-.96-13.12 3.84-.2c2.56-.23 4.16-.9 5.12-1.8 1.92-2 1.92-5.32-.32-7.33-1.28-1.33-1.92-1.33-15.04-1.55l-14.08-.22.32-2.45c1.28-7.78 0-23.8-1.6-25.8-.96-.88-.96-1.54-.32-3.32.96-2.45.96-7.56 0-12.45-.32-2.9-.32-3.56.64-4.45 1.92-1.55 2.88-3.78 2.88-6.67 0-1.33.32-3.77.96-5.55 1.28-2.88 1.28-4 .32-8.44-.32-2.67-1.28-6.23-1.92-7.78-.32-1.56-.64-3.56-.64-4.45.32-3.55-8.32-14.9-11.52-14.9-.64-.2-1.6-.2-1.92-.44-.32 0-.96-.23-1.28-.23-.64 0-1.28-1.1-1.6-2.22-.64-1.34-1.6-2.67-2.56-3.34-.96-.43-1.92-1.54-1.92-2.43-.32-.9-1.28-2-1.92-2.45-1.28-.66-.96-.9.32-3.1.96-1.34 1.92-3.8 2.24-6.46.32-2.22.64-4.22.96-4.44.96-.45.64-4.67 0-7.78-.96-3.34-3.84-6.67-6.72-7.78-.96-.45-4.8-1.12-8-1.34-5.44-.44-6.4-.22-8.32.9z" stroke="#000" stroke-opacity="0" stroke-width=".11" fill="#dd039c"/><g stroke="#000" stroke-opacity="0" stroke-width=".09"><path d="M815.78 279.62c-8.73 1.7-12 3.5-7.1 3.5 2.2 0 2.2.66 3.83 8.84 1.1 4.8 1.64 8.83 1.64 9.1-1.1.38-10.9 2.07-11.45 1.8 0-.38-3.83-15.58-3.83-17.14 0-.4.55-.78 1.64-1.04 2.73-.64 2.73-2.85 0-2.2-1.08.26-6 1.17-10.36 2.07-4.9.78-8.73 1.95-8.73 2.34 0 .38 1.1.77 2.2.77 2.18 0 1.63-1.04 6 21.44 2.18 9.5 3.27 17.68 2.72 18.07 0 .52-1.1.9-2.18.9-.54 0-1.1.27 0 1.04.55.8 13.1-.76 19.64-2.45 1.64-.65 1.1-2.2-1.1-2.2-1.63 0-2.17-1.7-3.8-9.24-1.1-5.05-1.65-9.47-1.1-9.6 0-.13 2.73-.65 6-1.04l4.9-.65 1.1 5.47c.55 3 1.64 7.27 2.18 9.48.55 3.5.55 4.03-1.1 4.42-1.62.4-2.72 2.08-1.08 2.08 1.1 0 16.37-2.73 18.55-3.25 2.18-.65 2.18-2.08-.55-2.47-1.63-.26-2.18-1.7-5.45-19.5-3.82-17.4-3.82-19.2-2.73-20 2.18-1.03 2.73-2.6.55-2.46-.55.13-5.46.9-10.37 1.95z" fill="url(#b)" transform="matrix(0.9990086016791417,-0.04451756699423184,0.04451756699423184,0.9990086016791417,-14.398666353074864,38.6961672165196)"/><path d="M846.33 279.1c-3.27.26-6.55.78-6.55 1.3s1.1.9 2.2.9h2.7l.56 15.73c1.1 26.24 1.1 25.07-1.1 25.33-1.08.26-2.17.78-2.17 1.3 0 .78 2.18.9 7.63.52 4.37-.4 10.37-.65 13.64-.65 3.82 0 5.46-.4 5.46-1.3s-1.1-1.17-4.37-.78l-3.82.4-.53-7.68c-.55-4.15-.55-7.92-.55-8.3.55-.4 2.18-.8 3.27-.8 5.45 0 12.54-2.6 14.72-5.58 2.2-2.2 2.73-3.77 2.73-8.2 0-4.4-.54-5.84-2.18-8.04-4.37-4.42-9.82-5.07-31.64-4.16zm18 3.25c.55.52 1.1 4.54 1.1 9.1.54 6.88 0 8.56-1.1 10.12-1.1.9-2.73 1.7-3.27 1.7-1.64 0-1.64-1.44-2.18-10.53-.55-5.85-.55-11.04-.55-11.56 1.1-.9 4.36-.26 6 1.17z" fill="url(#c)" transform="matrix(0.9990086016791417,-0.04451756699423184,0.04451756699423184,0.9990086016791417,-14.398666353074864,38.6961672165196)"/><path d="M905.24 283c-8.18 3.76-13.63 13.38-12.54 24.94.54 8.18 3.82 13.38 9.27 16.5 3.82 2.08 5.46 2.34 13.1 2.34 7.08 0 9.27-.26 12-2.2 11.45-6.9 13.63-29.5 3.27-38.47-4.9-4.8-17.46-6.35-25.1-3.1zm15.82 2.46l2.2 2.47-.56 12.08c-.55 13.27-1.64 21.06-3.82 23-4.36 4.17-10.9 1.7-12-4.67-1.1-4.03.55-23.9 2.18-28.97 1.64-6.23 7.64-8.05 12-3.9z" fill="url(#d)" transform="matrix(0.9990086016791417,-0.04451756699423184,0.04451756699423184,0.9990086016791417,-14.398666353074864,38.6961672165196)"/><path d="M761.23 289.1c-1.1.78-3.82 1.3-5.45 1.3-4.9 0-15.28 5.33-18 9.1-4.92 7.14-4.92 15.97-.55 25.6 4.36 7.9 10.36 12.2 18.55 12.2 3.8 0 12-2.47 16.36-5.07 2.18-1.3 4.9-2.34 6-2.34 1.1 0 1.64-.4 1.1-1.18 0-.64-1.1-3.76-2.2-6.88-1.63-5.98-3.8-7.8-3.8-3.25 0 7.4-5.46 15.06-10.37 15.06-2.73 0-7.64-3.9-9.82-8.18-3.28-5.85-7.1-18.45-7.1-23.13 0-3.76.55-5.06 2.73-6.88 3.82-3.64 7.64-3.12 14.2 1.82 2.7 2.32 5.44 4.14 6 4.14 1.08 0-3.3-11.7-4.38-13-.54-.25-1.63 0-3.27.66z" fill="url(#e)" transform="matrix(0.9990086016791417,-0.04451756699423184,0.04451756699423184,0.9990086016791417,-14.398666353074864,38.6961672165196)"/><path d="M953.25 290.4c-3.27 10.52-3.82 14.68-2.73 14.68.55 0 2.18-1.95 4.36-4.55 3.28-4.93 6-7.27 8.73-7.27 2.2 0 2.2 1.43-2.7 21.56l-3.83 17.4-3.28.27c-1.64.25-2.73.64-2.73 1.16 0 .52 0 .9.54.9l11.47 2.22c6 1.3 11.45 2.34 12 2.34 1.64 0 .54-1.7-2.18-2.6l-2.74-.9 4.36-19.1c2.73-10.53 4.37-19.36 4.9-19.5 0-.12.56 0 1.65.27 2.73.77 4.9 5.18 5.45 11.3 1.1 4.8 2.2 6.22 2.73 3.1 1.64-4.02 2.73-14.02 2.73-14.4-.55-.27-9.27-2.35-19.64-4.43-16.36-3.38-18.55-3.77-19.1-2.47z" fill="url(#f)" transform="matrix(0.9990086016791417,-0.04451756699423184,0.04451756699423184,0.9990086016791417,-14.398666353074864,38.6961672165196)"/><path d="M710.5 303.4c-2.18.9-4.37 1.8-4.9 2.07-.56.13-.56.78 0 1.3.53.78 1.08.9 2.17.26 1.64-.78 2.73.9 9.27 13.5 7.64 15.73 8.73 19.24 4.9 23.52-1.08 1.3-3.26 2.86-5.44 3.38-6 1.82-7.64.13-16.37-16.5-3.8-8.05-7.63-15.2-7.63-15.72 0-.64 1.1-1.67 1.63-2.32 1.1-.65 1.64-1.43 1.1-1.7-.55-.77-19.64 8.06-19.64 9.1.53.52 1.08.78 2.17.65 1.63-.13 3.27 2.34 9.27 13.64 3.82 7.54 8.18 14.94 9.82 16.37 2.18 2.2 3.27 2.47 8.73 2.47 12-.12 22.35-7.53 21.26-15.84-.54-2.08-3.27-9.87-7.1-17.67-3.8-7.54-7.08-14.17-7.08-14.56 0-.52.55-1.17 1.1-1.3.54-.13 1.08-.78.54-1.3 0-.65-1.64-.4-3.82.65z" fill="url(#g)" transform="matrix(0.9990086016791417,-0.04451756699423184,0.04451756699423184,0.9990086016791417,-14.398666353074864,38.6961672165196)"/><path d="M1007.8 326.78c-9.82 11.3-15.28 16.88-16.9 16.88-1.1 0-1.65.4-1.65.9 0 .92 6.55 3.78 8.73 3.78 2.18 0 2.18-1.56 0-2.08-2.73-.65-2.73-1.43 2.18-6.62l4.37-4.55 5.45 1.8 5.46 1.96.54 6.75v6.64l-2.18-.65c-1.64-.27-2.73-.14-3.27.25 0 .52 4.36 2.47 10.36 4.68 9.8 3.5 13.63 4.15 9.8 1.56-1.08-1.18-1.63-3.4-1.63-24.18V310.8l-1.63-.52c-1.64-.26-2.73-.52-3.28-.52-1.1 0-8.18 7.66-16.36 17.02zm7.64 9.22c-.55.52-9.28-2.34-9.28-3 0-.25 2.18-2.85 4.9-5.7l4.38-5.2.54 6.75c0 3.77 0 7.02-.54 7.15z" fill="url(#h)" transform="matrix(0.9990086016791417,-0.04451756699423184,0.04451756699423184,0.9990086016791417,-14.398666353074864,38.6961672165196)"/><path d="M1056.35 329.24c-4.36 6.9-6.55 10.8-6 11.3.54.4 3.27-1.3 6-3.63 5.45-4.02 10.36-5.45 11.45-3.5 1.1 1.3-18 35.6-19.63 35.2-.55-.12-2.2-.5-2.73-.77-1.1-.26-1.64 0-1.64.4 0 1.42 20.73 11.55 21.82 10.77 1.1-.4.55-1.17-1.1-1.95-1.62-.78-2.72-1.7-2.72-2.08 2.2-5.06 19.1-34.94 19.64-34.94 2.73 0 4.37 5.2 3.82 11.95-.54 3.64-.54 6.5 0 6.5 1.1 0 8.18-14.82 8.18-15.33-1.1-.52-34.36-16.9-34.9-16.9 0 0-1.1 1.44-2.2 3z" fill="url(#i)" transform="matrix(0.9990086016791417,-0.04451756699423184,0.04451756699423184,0.9990086016791417,-14.398666353074864,38.6961672165196)"/><path d="M650.5 331.2c-12.55 4.4-19.65 14.15-16.92 24.42 2.18 9.35 10.37 19.1 17.46 21.3 6 1.56 12 .4 18.55-3.76 10.35-7.02 13.08-15.33 8.17-26-3.82-7.65-8.18-12.46-14.2-15.06-5.44-2.47-8.17-2.6-13.08-.9zm3.27 7.14c7.1 7.27 18 23.77 18 27.28 0 3.38-3.82 6.63-7.64 6.63-2.18 0-3.82-.9-6-3.5-7.64-7.8-16.9-23.27-16.9-27.16 0-2.87 3.8-6.12 7.08-6.12 2.2 0 3.83 1.04 5.47 2.86z" fill="url(#j)" transform="matrix(0.9990086016791417,-0.04451756699423184,0.04451756699423184,0.9990086016791417,-14.398666353074864,38.6961672165196)"/><path d="M607.94 356.8c-.54.77-3.82 3.23-7.1 5.44-8.72 5.46-12 10.92-12 18.58 0 6.37 2.2 11.3 7.65 17.15 4.35 4.16 12 8.18 16.35 8.18 6.55 0 15.28-4.8 20.73-11.95 2.18-2.47 4.37-4.55 4.9-4.55 2.2 0 2.2-.65-2.72-6.36-4.36-5.08-7.1-6.64-6.54-3.65 2.73 10.13 2.18 14.55-1.64 17.4-2.73 2.48-6 2.22-10.9-.5-4.37-2.48-15.83-14.17-18.56-18.98-2.18-4.67-2.18-8.96 1.1-11.43 3.27-2.73 7.63-2.86 14.18-.52 2.18 1.04 4.9 1.43 4.9 1.04.55-.4-1.63-3.25-4.36-5.98-4.36-4.4-5.45-5.06-6-3.9z" fill="url(#k)" transform="matrix(0.9990086016791417,-0.04451756699423184,0.04451756699423184,0.9990086016791417,-14.398666353074864,38.6961672165196)"/><path d="M1102.17 363.15c-8.18 3.9-15.82 15.07-15.82 23.52 0 8.7 7.64 16.88 18.55 20.13 8.18 2.47 16.9-1.3 23.46-10.13 6-8.7 7.63-15.6 4.36-22.22-4.9-10.65-20.18-16.36-30.55-11.3zm21.28 4.55c4.36 3.25 3.27 6.75-6 19.62-7.1 10-12.55 15.2-15.28 15.2-3.27-.13-5.45-1.7-6.54-4.8-1.64-3.13 1.63-8.98 9.8-19.9 8.74-12.2 12.56-14.15 18.02-10.12z" fill="url(#l)" transform="matrix(0.9990086016791417,-0.04451756699423184,0.04451756699423184,0.9990086016791417,-14.398666353074864,38.6961672165196)"/></g><defs><radialGradient gradientUnits="userSpaceOnUse" id="a" fx="795.79" fy="782.28" cx="795.79" cy="782.28" r="400"><stop offset="0%" stop-color="#fff"/><stop offset="100%" stop-color="#85a2e5" stop-opacity=".67"/></radialGradient><linearGradient gradientUnits="userSpaceOnUse" id="b" x1="1134.36" y1="407.58" x2="588.85" y2="386.57"><stop offset="0%" stop-color="#005888"/><stop offset="62.5%" stop-color="#c92d39"/><stop offset="87.5%" stop-color="#95212b"/></linearGradient><linearGradient gradientUnits="userSpaceOnUse" id="c" x1="1134.36" y1="407.58" x2="588.85" y2="386.57"><stop offset="0%" stop-color="#005888"/><stop offset="62.5%" stop-color="#c92d39"/><stop offset="87.5%" stop-color="#95212b"/></linearGradient><linearGradient gradientUnits="userSpaceOnUse" id="d" x1="1134.36" y1="407.58" x2="588.85" y2="386.57"><stop offset="0%" stop-color="#005888"/><stop offset="62.5%" stop-color="#c92d39"/><stop offset="87.5%" stop-color="#95212b"/></linearGradient><linearGradient gradientUnits="userSpaceOnUse" id="e" x1="1134.36" y1="407.58" x2="588.85" y2="386.57"><stop offset="0%" stop-color="#005888"/><stop offset="62.5%" stop-color="#c92d39"/><stop offset="87.5%" stop-color="#95212b"/></linearGradient><linearGradient gradientUnits="userSpaceOnUse" id="f" x1="1134.36" y1="407.58" x2="588.85" y2="386.57"><stop offset="0%" stop-color="#005888"/><stop offset="62.5%" stop-color="#c92d39"/><stop offset="87.5%" stop-color="#95212b"/></linearGradient><linearGradient gradientUnits="userSpaceOnUse" id="g" x1="1134.36" y1="407.58" x2="588.85" y2="386.57"><stop offset="0%" stop-color="#005888"/><stop offset="62.5%" stop-color="#c92d39"/><stop offset="87.5%" stop-color="#95212b"/></linearGradient><linearGradient gradientUnits="userSpaceOnUse" id="h" x1="1134.36" y1="407.58" x2="588.85" y2="386.57"><stop offset="0%" stop-color="#005888"/><stop offset="62.5%" stop-color="#c92d39"/><stop offset="87.5%" stop-color="#95212b"/></linearGradient><linearGradient gradientUnits="userSpaceOnUse" id="i" x1="1134.36" y1="407.58" x2="588.85" y2="386.57"><stop offset="0%" stop-color="#005888"/><stop offset="62.5%" stop-color="#c92d39"/><stop offset="87.5%" stop-color="#95212b"/></linearGradient><linearGradient gradientUnits="userSpaceOnUse" id="j" x1="1134.36" y1="407.58" x2="588.85" y2="386.57"><stop offset="0%" stop-color="#005888"/><stop offset="62.5%" stop-color="#c92d39"/><stop offset="87.5%" stop-color="#95212b"/></linearGradient><linearGradient gradientUnits="userSpaceOnUse" id="k" x1="1134.36" y1="407.58" x2="588.85" y2="386.57"><stop offset="0%" stop-color="#005888"/><stop offset="62.5%" stop-color="#c92d39"/><stop offset="87.5%" stop-color="#95212b"/></linearGradient><linearGradient gradientUnits="userSpaceOnUse" id="l" x1="1134.36" y1="407.58" x2="588.85" y2="386.57"><stop offset="0%" stop-color="#005888"/><stop offset="62.5%" stop-color="#c92d39"/><stop offset="87.5%" stop-color="#95212b"/></linearGradient></defs></g></svg>
